<mxfile host="app.diagrams.net" agent="Mozilla/5.0 (Windows NT 10.0; Win64; x64) AppleWebKit/537.36 (KHTML, like Gecko) Chrome/135.0.0.0 Safari/537.36" version="26.2.10">
  <diagram name="Page-1" id="7e0a89b8-554c-2b80-1dc8-d5c74ca68de4">
    <mxGraphModel dx="2089" dy="798" grid="0" gridSize="10" guides="1" tooltips="1" connect="1" arrows="1" fold="1" page="1" pageScale="1" pageWidth="1100" pageHeight="850" background="none" math="0" shadow="0">
      <root>
        <mxCell id="0" />
        <mxCell id="1" parent="0" />
        <mxCell id="tq2-nHVY2TyQ80vCiKGr-21" value="" style="rounded=0;whiteSpace=wrap;html=1;strokeWidth=2;fontSize=14;" vertex="1" parent="1">
          <mxGeometry x="364" y="290" width="396" height="510" as="geometry" />
        </mxCell>
        <mxCell id="tq2-nHVY2TyQ80vCiKGr-14" style="edgeStyle=orthogonalEdgeStyle;rounded=0;orthogonalLoop=1;jettySize=auto;html=1;exitX=0;exitY=0.11810344827586207;exitDx=0;exitDy=3;exitPerimeter=0;endArrow=box;endFill=0;strokeWidth=2;fontSize=14;" edge="1" parent="1" source="tq2-nHVY2TyQ80vCiKGr-1">
          <mxGeometry relative="1" as="geometry">
            <mxPoint x="360" y="387.3333333333333" as="targetPoint" />
          </mxGeometry>
        </mxCell>
        <mxCell id="tq2-nHVY2TyQ80vCiKGr-15" style="edgeStyle=orthogonalEdgeStyle;rounded=0;orthogonalLoop=1;jettySize=auto;html=1;exitX=0;exitY=0.3543103448275862;exitDx=0;exitDy=3;exitPerimeter=0;endArrow=box;endFill=0;strokeWidth=2;fontSize=14;" edge="1" parent="1" source="tq2-nHVY2TyQ80vCiKGr-1">
          <mxGeometry relative="1" as="geometry">
            <mxPoint x="360" y="455.75862068965523" as="targetPoint" />
          </mxGeometry>
        </mxCell>
        <mxCell id="tq2-nHVY2TyQ80vCiKGr-16" style="edgeStyle=orthogonalEdgeStyle;rounded=0;orthogonalLoop=1;jettySize=auto;html=1;exitX=0;exitY=0.5905172413793104;exitDx=0;exitDy=3;exitPerimeter=0;endArrow=box;endFill=0;strokeWidth=2;fontSize=14;" edge="1" parent="1" source="tq2-nHVY2TyQ80vCiKGr-1">
          <mxGeometry relative="1" as="geometry">
            <mxPoint x="360" y="524.0344827586207" as="targetPoint" />
          </mxGeometry>
        </mxCell>
        <mxCell id="tq2-nHVY2TyQ80vCiKGr-17" style="edgeStyle=orthogonalEdgeStyle;rounded=0;orthogonalLoop=1;jettySize=auto;html=1;exitX=0;exitY=0.8267241379310345;exitDx=0;exitDy=3;exitPerimeter=0;endArrow=box;endFill=0;strokeWidth=2;fontSize=14;" edge="1" parent="1" source="tq2-nHVY2TyQ80vCiKGr-1">
          <mxGeometry relative="1" as="geometry">
            <mxPoint x="360" y="593" as="targetPoint" />
          </mxGeometry>
        </mxCell>
        <mxCell id="tq2-nHVY2TyQ80vCiKGr-18" style="rounded=0;orthogonalLoop=1;jettySize=auto;html=1;exitX=1;exitY=0.5;exitDx=0;exitDy=-5;exitPerimeter=0;endArrow=box;endFill=0;strokeWidth=2;fontSize=14;" edge="1" parent="1">
          <mxGeometry relative="1" as="geometry">
            <mxPoint x="763" y="490.2413793103449" as="targetPoint" />
            <mxPoint x="633" y="490.0000000000001" as="sourcePoint" />
          </mxGeometry>
        </mxCell>
        <mxCell id="tq2-nHVY2TyQ80vCiKGr-19" style="edgeStyle=orthogonalEdgeStyle;rounded=0;orthogonalLoop=1;jettySize=auto;html=1;exitX=0.21875;exitY=1;exitDx=10;exitDy=0;exitPerimeter=0;endArrow=box;endFill=0;strokeWidth=2;fontSize=14;" edge="1" parent="1" source="tq2-nHVY2TyQ80vCiKGr-1">
          <mxGeometry relative="1" as="geometry">
            <mxPoint x="360" y="699.9999999999999" as="targetPoint" />
            <Array as="points">
              <mxPoint x="518" y="700" />
            </Array>
          </mxGeometry>
        </mxCell>
        <mxCell id="tq2-nHVY2TyQ80vCiKGr-20" style="edgeStyle=orthogonalEdgeStyle;rounded=0;orthogonalLoop=1;jettySize=auto;html=1;exitX=0.65625;exitY=1;exitDx=10;exitDy=0;exitPerimeter=0;endArrow=box;endFill=0;strokeWidth=2;fontSize=14;" edge="1" parent="1" source="tq2-nHVY2TyQ80vCiKGr-1">
          <mxGeometry relative="1" as="geometry">
            <mxPoint x="360" y="749.9999999999999" as="targetPoint" />
            <Array as="points">
              <mxPoint x="588" y="750" />
            </Array>
          </mxGeometry>
        </mxCell>
        <mxCell id="tq2-nHVY2TyQ80vCiKGr-1" value="Mux" style="shadow=0;dashed=0;align=center;html=1;strokeWidth=2;shape=mxgraph.electrical.abstract.mux2;whiteSpace=wrap;container=0;movable=1;resizable=1;rotatable=1;deletable=1;editable=1;locked=0;connectable=1;selectorPins=2;recursiveResize=1;noLabel=1;allowArrows=1;perimeterSpacing=0;fontSize=27;spacingTop=0;spacing=100;fillOpacity=100;labelPadding=0;autosize=0;resizeWidth=1;snapToPoint=0;expand=1;labelPosition=right;verticalLabelPosition=top;verticalAlign=bottom;backgroundOutline=0;" vertex="1" parent="1">
          <mxGeometry x="473" y="350" width="160" height="290" as="geometry">
            <mxRectangle x="240" y="100" width="60" height="30" as="alternateBounds" />
          </mxGeometry>
        </mxCell>
        <mxCell id="tq2-nHVY2TyQ80vCiKGr-22" value="a" style="text;html=1;align=center;verticalAlign=middle;resizable=0;points=[];autosize=1;strokeColor=none;fillColor=none;strokeWidth=2;fontSize=14;" vertex="1" parent="1">
          <mxGeometry x="320" y="370" width="30" height="30" as="geometry" />
        </mxCell>
        <mxCell id="tq2-nHVY2TyQ80vCiKGr-23" value="b" style="text;html=1;align=center;verticalAlign=middle;resizable=0;points=[];autosize=1;strokeColor=none;fillColor=none;strokeWidth=2;fontSize=14;" vertex="1" parent="1">
          <mxGeometry x="320" y="440" width="30" height="30" as="geometry" />
        </mxCell>
        <mxCell id="tq2-nHVY2TyQ80vCiKGr-24" value="c" style="text;html=1;align=center;verticalAlign=middle;resizable=0;points=[];autosize=1;strokeColor=none;fillColor=none;strokeWidth=2;fontSize=14;" vertex="1" parent="1">
          <mxGeometry x="320" y="510" width="30" height="30" as="geometry" />
        </mxCell>
        <mxCell id="tq2-nHVY2TyQ80vCiKGr-25" value="d" style="text;html=1;align=center;verticalAlign=middle;resizable=0;points=[];autosize=1;strokeColor=none;fillColor=none;strokeWidth=2;fontSize=14;" vertex="1" parent="1">
          <mxGeometry x="320" y="577" width="30" height="30" as="geometry" />
        </mxCell>
        <mxCell id="tq2-nHVY2TyQ80vCiKGr-26" value="s [1]" style="text;html=1;align=center;verticalAlign=middle;resizable=0;points=[];autosize=1;strokeColor=none;fillColor=none;strokeWidth=2;fontSize=14;" vertex="1" parent="1">
          <mxGeometry x="313" y="685" width="44" height="29" as="geometry" />
        </mxCell>
        <mxCell id="tq2-nHVY2TyQ80vCiKGr-27" value="s [0]" style="text;html=1;align=center;verticalAlign=middle;resizable=0;points=[];autosize=1;strokeColor=none;fillColor=none;strokeWidth=2;fontSize=14;" vertex="1" parent="1">
          <mxGeometry x="313" y="734" width="44" height="29" as="geometry" />
        </mxCell>
        <mxCell id="tq2-nHVY2TyQ80vCiKGr-28" value="out 1" style="text;html=1;align=center;verticalAlign=middle;resizable=0;points=[];autosize=1;strokeColor=none;fillColor=none;strokeWidth=2;fontSize=16;" vertex="1" parent="1">
          <mxGeometry x="759" y="478" width="54" height="31" as="geometry" />
        </mxCell>
        <mxCell id="tq2-nHVY2TyQ80vCiKGr-29" value="top" style="text;html=1;align=center;verticalAlign=middle;resizable=0;points=[];autosize=1;strokeColor=none;fillColor=none;strokeWidth=2;fontSize=14;" vertex="1" parent="1">
          <mxGeometry x="364" y="290" width="40" height="30" as="geometry" />
        </mxCell>
      </root>
    </mxGraphModel>
  </diagram>
</mxfile>
